<?xml version="1.0" ?><!DOCTYPE svg  PUBLIC '-//W3C//DTD SVG 1.1//EN'  'http://www.w3.org/Graphics/SVG/1.1/DTD/svg11.dtd'><svg height="6.72in" style="shape-rendering:geometricPrecision; text-rendering:geometricPrecision; image-rendering:optimizeQuality; fill-rule:evenodd; clip-rule:evenodd" viewBox="0 0 6.72 6.72" width="6.72in" xml:space="preserve" xmlns="http://www.w3.org/2000/svg" xmlns:xlink="http://www.w3.org/1999/xlink"><defs><style type="text/css">
   <![CDATA[
    .fil5 {fill:none}
    .fil2 {fill:#263238}
    .fil3 {fill:#75858D}
    .fil4 {fill:#90A4AE}
    .fil6 {fill:#966317;fill-rule:nonzero}
    .fil1 {fill:#D29C3B;fill-rule:nonzero}
    .fil0 {fill:#FFA726;fill-rule:nonzero}
   ]]>
  </style></defs><g id="Layer_x0020_1"><g id="_299333536"><path class="fil0" d="M2.72483 4.86785c-0.05,-0.276563 -0.215693,-0.49713 -0.387201,-0.725366 -0.239921,-0.319291 -0.49039,-0.652614 -0.49039,-1.17515 0,-0.435701 0.176618,-0.830161 0.462146,-1.11569 0.285531,-0.285531 0.679992,-0.462142 1.11569,-0.462142 0.435701,0 0.830165,0.17661 1.11569,0.462142 0.285531,0.285528 0.462146,0.679988 0.462146,1.11569 0,0.522539 -0.250465,0.855862 -0.490386,1.17515l-0.387205 0.725366 -1.4005 0z" id="_299979136"/><path class="fil0" d="M3.44292 0.879535c0,-0.0439252 -0.037122,-0.0795354 -0.0829173,-0.0795354 -0.0457913,0 -0.0829173,0.0356102 -0.0829173,0.0795354l0 0.138909c0,0.0439252 0.037126,0.0795354 0.0829173,0.0795354 0.0457953,0 0.0829173,-0.0356102 0.0829173,-0.0795354l0 -0.138909z" id="_299977576"/><path class="fil0" d="M4.44754 1.18012c0.0227165,-0.0379213 0.00908661,-0.0863346 -0.0304449,-0.108122 -0.0395315,-0.0217913 -0.09,-0.00872047 -0.112717,0.0292008l-0.0724094 0.120299c-0.0227165,0.0379213 -0.00908661,0.0863346 0.0304488,0.108126 0.0395315,0.0217874 0.09,0.00871654 0.112717,-0.0292047l0.0724055 -0.120299z" id="_299980024"/><path class="fil0" d="M5.16083 1.92274c0.0395315,-0.0217913 0.0531614,-0.0702008 0.0304449,-0.108122 -0.0227165,-0.0379213 -0.073185,-0.0509921 -0.112717,-0.0292047l-0.125413 0.0694567c-0.0395315,0.0217874 -0.0531614,0.0702008 -0.0304449,0.108122 0.0227165,0.0379213 0.073185,0.0509921 0.112717,0.0292047l0.125413 -0.0694567z" id="_299981704"/><path class="fil0" d="M5.39192 2.90815c0.0457953,0 0.0829213,-0.0356142 0.0829213,-0.0795394 0,-0.0439252 -0.037126,-0.0795354 -0.0829213,-0.0795354l-0.144815 0c-0.0457913,0 -0.0829173,0.0356102 -0.0829173,0.0795354 0,0.0439252 0.037126,0.0795394 0.0829173,0.0795394l0.144815 0z" id="_299978680"/><path class="fil0" d="M1.64144 1.78541c-0.0395354,-0.0217874 -0.0900039,-0.00871654 -0.11272,0.0292047 -0.0227165,0.0379213 -0.00908661,0.0863307 0.0304449,0.108122l0.125413 0.0694567c0.0395354,0.0217874 0.0900039,0.00871654 0.11272,-0.0292047 0.0227165,-0.0379213 0.00908661,-0.0863346 -0.0304449,-0.108122l-0.125413 -0.0694567z" id="_299329336"/><path class="fil0" d="M2.41562 1.1012c-0.0227165,-0.0379213 -0.073185,-0.0509921 -0.112717,-0.0292008 -0.0395354,0.0217874 -0.0531654,0.0702008 -0.0304488,0.108122l0.0724094 0.120299c0.0227165,0.0379213 0.073185,0.0509921 0.112717,0.0292047 0.0395315,-0.0217913 0.0531614,-0.0702047 0.0304449,-0.108126l-0.0724055 -0.120299z" id="_299329720"/><path class="fil1" d="M3.44292 0.879535c0,-0.0439213 -0.037122,-0.0795354 -0.0829173,-0.0795354l0 0.29798c0.0457953,0 0.0829173,-0.0356102 0.0829173,-0.0795394l0 -0.138906z" id="_299326744"/><path class="fil1" d="M4.44754 1.18012c0.0227165,-0.0379213 0.00908661,-0.0863346 -0.0304449,-0.108122 -0.0395315,-0.0217953 -0.0900039,-0.00871654 -0.112717,0.0292047l-0.0724055 0.120299c-0.0227205,0.0379173 -0.00909055,0.0863307 0.0304449,0.108122 0.0395315,0.0217874 0.09,0.00871654 0.112717,-0.0292047l0.0724055 -0.120299z" id="_299329144"/><path class="fil1" d="M5.16083 1.92274c0.0395315,-0.0217874 0.0531654,-0.0702008 0.0304449,-0.108122 -0.0227126,-0.0379173 -0.073185,-0.0509921 -0.112717,-0.0292008l-0.125413 0.0694488c-0.0395315,0.0217953 -0.0531614,0.0702047 -0.0304488,0.108122 0.0227205,0.0379252 0.073185,0.0509961 0.11272,0.0292087l0.125413 -0.0694567z" id="_299329096"/><path class="fil1" d="M5.39193 2.90815c0.0457913,0 0.0829134,-0.0356142 0.0829134,-0.0795354 0,-0.0439291 -0.037122,-0.0795394 -0.0829134,-0.0795394l-0.144819 0c-0.0457913,0 -0.0829173,0.0356102 -0.0829173,0.0795394 0,0.0439213 0.037126,0.0795354 0.0829173,0.0795354l0.144819 0z" id="_299333560"/><path class="fil0" d="M1.32808 2.74907c-0.0457913,0 -0.0829173,0.0356102 -0.0829173,0.0795354 0,0.0439252 0.037126,0.0795394 0.0829173,0.0795394l0.144815 0c0.0457953,0 0.0829173,-0.0356142 0.0829173,-0.0795394 0,-0.0439252 -0.037122,-0.0795354 -0.0829173,-0.0795354l-0.144815 0z" id="_299332144"/><ellipse class="fil2" cx="3.41966" cy="5.78616" id="_299329576" rx="0.217902" ry="0.133837"/><rect class="fil3" height="0.188639" id="_299333128" width="1.25789" x="2.79072" y="5.01774"/><rect class="fil4" height="0.183677" id="_299332864" rx="0.178996" ry="0.178996" width="1.43657" x="2.70138" y="5.20325"/><rect class="fil3" height="0.188639" id="_299328136" width="1.25789" x="2.79072" y="5.38692"/><rect class="fil4" height="0.183677" id="_299329768" rx="0.178996" ry="0.178996" width="1.43657" x="2.70138" y="5.5747"/><g><polyline class="fil5" id="_299332888" points="3.18493,4.86785 3.18493,4.06115 2.7473,3.1757 "/><path class="fil6" d="M3.14205 4.86785c0,0.023685 0.0192008,0.0428819 0.0428819,0.0428819 0.0236811,0 0.0428819,-0.0191969 0.0428819,-0.0428819l0 -0.806697c0,-0.00793701 -0.00216142,-0.0153701 -0.00592126,-0.0217441l-0.43624 -0.882638c-0.0104528,-0.0211811 -0.0361024,-0.029878 -0.0572835,-0.0194252 -0.021185,0.0104528 -0.0298819,0.0361024 -0.0194291,0.0572835l0.43311 0.876295 0 0.796925z" id="_299328424"/><polyline class="fil5" id="_299334208" points="3.66141,4.86785 3.66141,4.06115 4.09905,3.1757 "/><path class="fil6" d="M3.61853 4.86785c0,0.023685 0.0192008,0.0428819 0.0428819,0.0428819 0.0236811,0 0.0428819,-0.0191969 0.0428819,-0.0428819l0 -0.796925 0.433106 -0.876295c0.0104528,-0.0211811 0.00175591,-0.0468307 -0.0194252,-0.0572835 -0.0211811,-0.0104528 -0.0468307,-0.00175591 -0.0572874,0.0194252l-0.43624 0.882638c-0.00375984,0.00637402 -0.00591732,0.0138071 -0.00591732,0.0217441l0 0.806697z" id="_299333008"/><polyline class="fil5" id="_299330872" points="2.74733,3.17565 2.91633,3.06765 3.08533,3.17565 3.25434,3.06765 3.42334,3.17565 3.59234,3.06765 3.76134,3.17565 3.93035,3.06765 4.09935,3.17565 "/><path class="fil6" d="M2.72439 3.13964c-0.0198858,0.0126732 -0.0257362,0.0390748 -0.013063,0.0589606 0.0126732,0.0198858 0.0390748,0.0257362 0.0589606,0.013063l0.146043 -0.0933346 0.14602 0.0933031 -9.44882e-005 0.000149606c0.0157244,0.0100551 0.0355354,0.00855118 0.0494606,-0.00230709l0.142626 -0.0911457 0.146004 0.0933031 -9.84252e-005 0.000149606c0.0157283,0.0100551 0.0355354,0.00855118 0.0494606,-0.00230709l0.142638 -0.0911457 0.146004 0.0933031 -9.44882e-005 0.000149606c0.0157283,0.0100551 0.0355354,0.00855118 0.0494606,-0.00230709l0.142634 -0.0911457 0.146051 0.0933346c0.0198858,0.0126732 0.0462874,0.00682283 0.0589606,-0.013063 0.0126732,-0.0198858 0.00682283,-0.0462874 -0.013063,-0.0589606l-0.165575 -0.105807c-0.0139252,-0.0108583 -0.0337362,-0.0123583 -0.0494646,-0.00230709l9.84252e-005 0.000149606 -0.146016 0.0933031 -0.142626 -0.0911457c-0.0139252,-0.0108583 -0.0337323,-0.0123583 -0.0494606,-0.00230709l9.84252e-005 0.000149606 -0.146016 0.0933031 -0.142622 -0.0911457c-0.0139252,-0.0108622 -0.0337362,-0.0123583 -0.0494646,-0.00230709l9.84252e-005 0.000149606 -0.146008 0.0933031 -0.142638 -0.0911457c-0.0139252,-0.0108583 -0.0337323,-0.0123583 -0.0494606,-0.00230709l9.44882e-005 0.000149606 -0.168949 0.107965z" id="_299334472"/></g><rect class="fil4" height="0.183677" id="_299334352" rx="0.178996" ry="0.178996" width="1.43657" x="2.70138" y="4.83407"/></g></g><rect class="fil5" height="6.72" width="6.72"/></svg>