<?xml version="1.0" encoding="UTF-8" standalone="no"?>
<svg width="150px" height="150px" viewBox="0 0 150 150" version="1.1" xmlns="http://www.w3.org/2000/svg" xmlns:xlink="http://www.w3.org/1999/xlink">
    <!-- Generator: Sketch 3.8.3 (29802) - http://www.bohemiancoding.com/sketch -->
    <title>Slice 1</title>
    <desc>Created with Sketch.</desc>
    <defs></defs>
    <g id="Page-1" stroke="none" stroke-width="1" fill="none" fill-rule="evenodd">
        <g id="1465026921_prohibited-forbidden-not-allowed-sign-no-walking_03" fill="#EF3E42">
            <path d="M0,74.8 C0,33.6 33.4,0.2 74.6,0.2 C115.8,0.2 149.2,33.6 149.2,74.8 C149.2,116 115.8,149.4 74.6,149.4 C33.4,149.5 0,116.1 0,74.8 L0,74.8 L0,74.8 Z M29.3,111.4 L111.2,29.5 C101.2,21.4 88.5,16.6 74.7,16.6 C42.5,16.6 16.5,42.7 16.5,74.8 C16.4,88.7 21.2,101.4 29.3,111.4 L29.3,111.4 L29.3,111.4 Z M118.2,36.1 L36,118.4 C46.3,127.6 59.8,133.1 74.7,133.1 C106.9,133.1 132.9,107 132.9,74.9 C132.9,60 127.3,46.4 118.2,36.1 L118.2,36.1 L118.2,36.1 Z" id="Shape"></path>
        </g>
    </g>
</svg>